<?xml version="1.0" encoding="UTF-8" standalone="no"?><!DOCTYPE svg PUBLIC "-//W3C//DTD SVG 1.1//EN" "http://www.w3.org/Graphics/SVG/1.1/DTD/svg11.dtd"><!-- Generated by graphviz version 2.40.1 (20161225.0304)
 --><!-- Title: Group Pages: 1 --><svg xmlns="http://www.w3.org/2000/svg" xmlns:xlink="http://www.w3.org/1999/xlink" width="224pt" height="302pt" viewBox="0.00 0.00 224.16 301.98">
<g id="graph0" class="graph" transform="scale(1 1) rotate(0) translate(4 297.9842)">
<title>Group</title>
<polygon fill="#ffffff" stroke="transparent" points="-4,4 -4,-297.9842 220.1649,-297.9842 220.1649,4 -4,4"/>
<!-- 1 -->
<g id="node1" class="node">
<title>1</title>
<ellipse fill="#d3d3d3" stroke="#000000" cx="109.3696" cy="-144.1434" rx="7" ry="7"/>
<text text-anchor="middle" x="109.3696" y="-142.3434" font-family="Times,serif" font-size="6.00" fill="#000000">1</text>
</g>
<!-- 2 -->
<g id="node2" class="node">
<title>2</title>
<ellipse fill="none" stroke="#000000" cx="14.2165" cy="-14.5417" rx="7" ry="7"/>
<text text-anchor="middle" x="14.2165" y="-12.7417" font-family="Times,serif" font-size="6.00" fill="#000000">2</text>
</g>
<!-- 1&#45;&#45;2 -->
<g id="edge1" class="edge">
<title>1--2</title>
<path fill="none" stroke="#000000" d="M105.0338,-138.2379C89.1095,-116.5484 33.9681,-41.4441 18.3615,-20.1873"/>
</g>
<!-- 3 -->
<g id="node3" class="node">
<title>3</title>
<ellipse fill="none" stroke="#000000" cx="98.5424" cy="-7" rx="7" ry="7"/>
<text text-anchor="middle" x="98.5424" y="-5.2" font-family="Times,serif" font-size="6.00" fill="#000000">3</text>
</g>
<!-- 1&#45;&#45;3 -->
<g id="edge2" class="edge">
<title>1--3</title>
<path fill="none" stroke="#000000" d="M108.8178,-137.1539C106.9648,-113.6826 100.9767,-37.8333 99.1061,-14.1399"/>
</g>
<!-- 4 -->
<g id="node4" class="node">
<title>4</title>
<ellipse fill="none" stroke="#000000" cx="171.8801" cy="-49.3004" rx="7" ry="7"/>
<text text-anchor="middle" x="171.8801" y="-47.5004" font-family="Times,serif" font-size="6.00" fill="#000000">4</text>
</g>
<!-- 1&#45;&#45;4 -->
<g id="edge3" class="edge">
<title>1--4</title>
<path fill="none" stroke="#000000" d="M113.2799,-138.2105C124.506,-121.178 156.7471,-72.2607 167.9713,-55.231"/>
</g>
<!-- 5 -->
<g id="node5" class="node">
<title>5</title>
<ellipse fill="none" stroke="#000000" cx="47.7766" cy="-108.5826" rx="7" ry="7"/>
<text text-anchor="middle" x="47.7766" y="-106.7826" font-family="Times,serif" font-size="6.00" fill="#000000">5</text>
</g>
<!-- 1&#45;&#45;5 -->
<g id="edge4" class="edge">
<title>1--5</title>
<path fill="none" stroke="#000000" d="M103.2387,-140.6037C91.4325,-133.7874 65.6693,-118.913 53.8828,-112.108"/>
</g>
<!-- 6 -->
<g id="node7" class="node">
<title>6</title>
<ellipse fill="none" stroke="#000000" cx="208.2875" cy="-173.7651" rx="7" ry="7"/>
<text text-anchor="middle" x="208.2875" y="-171.9651" font-family="Times,serif" font-size="6.00" fill="#000000">6</text>
</g>
<!-- 1&#45;&#45;6 -->
<g id="edge7" class="edge">
<title>1--6</title>
<path fill="none" stroke="#000000" d="M116.1686,-146.1794C134.2394,-151.5908 183.3159,-166.2871 201.4409,-171.7148"/>
</g>
<!-- 7 -->
<g id="node9" class="node">
<title>7</title>
<ellipse fill="none" stroke="#000000" cx="131.7919" cy="-272.368" rx="7" ry="7"/>
<text text-anchor="middle" x="131.7919" y="-270.568" font-family="Times,serif" font-size="6.00" fill="#000000">7</text>
</g>
<!-- 1&#45;&#45;7 -->
<g id="edge10" class="edge">
<title>1--7</title>
<path fill="none" stroke="#000000" d="M110.6394,-151.4047C114.5859,-173.9736 126.6085,-242.7265 130.536,-265.1864"/>
</g>
<!-- 8 -->
<g id="node11" class="node">
<title>8</title>
<ellipse fill="none" stroke="#000000" cx="7" cy="-273.4229" rx="7" ry="7"/>
<text text-anchor="middle" x="7" y="-271.6229" font-family="Times,serif" font-size="6.00" fill="#000000">8</text>
</g>
<!-- 1&#45;&#45;8 -->
<g id="edge13" class="edge">
<title>1--8</title>
<path fill="none" stroke="#000000" d="M104.9709,-149.6983C88.2087,-170.8668 28.4278,-246.3623 11.4976,-267.743"/>
</g>
<!-- 9 -->
<g id="node6" class="node">
<title>9</title>
<ellipse fill="none" stroke="#000000" cx="47.7766" cy="-179.7041" rx="7" ry="7"/>
<text text-anchor="middle" x="47.7766" y="-177.9041" font-family="Times,serif" font-size="6.00" fill="#000000">9</text>
</g>
<!-- 5&#45;&#45;9 -->
<g id="edge5" class="edge">
<title>5--9</title>
<path fill="none" stroke="#000000" d="M47.7766,-115.6621C47.7766,-129.2946 47.7766,-159.0434 47.7766,-172.6533"/>
</g>
<!-- 9&#45;&#45;1 -->
<g id="edge6" class="edge">
<title>9--1</title>
<path fill="none" stroke="#000000" d="M53.9076,-176.1644C65.7137,-169.3481 91.4769,-154.4737 103.2634,-147.6688"/>
</g>
<!-- 12 -->
<g id="node8" class="node">
<title>12</title>
<ellipse fill="none" stroke="#000000" cx="209.1649" cy="-119.0228" rx="7" ry="7"/>
<text text-anchor="middle" x="209.1649" y="-117.2228" font-family="Times,serif" font-size="6.00" fill="#000000">12</text>
</g>
<!-- 6&#45;&#45;12 -->
<g id="edge8" class="edge">
<title>6--12</title>
<path fill="none" stroke="#000000" d="M208.4022,-166.6085C208.5694,-156.1752 208.8786,-136.8881 209.0474,-126.3559"/>
</g>
<!-- 12&#45;&#45;1 -->
<g id="edge9" class="edge">
<title>12--1</title>
<path fill="none" stroke="#000000" d="M202.3056,-120.7495C184.0745,-125.3386 134.5628,-137.8017 116.2769,-142.4046"/>
</g>
<!-- 10 -->
<g id="node10" class="node">
<title>10</title>
<ellipse fill="none" stroke="#000000" cx="175.3028" cy="-239.1373" rx="7" ry="7"/>
<text text-anchor="middle" x="175.3028" y="-237.3373" font-family="Times,serif" font-size="6.00" fill="#000000">10</text>
</g>
<!-- 7&#45;&#45;10 -->
<g id="edge11" class="edge">
<title>7--10</title>
<path fill="none" stroke="#000000" d="M137.4802,-268.0237C145.7729,-261.6902 161.1029,-249.9822 169.4743,-243.5888"/>
</g>
<!-- 10&#45;&#45;1 -->
<g id="edge12" class="edge">
<title>10--1</title>
<path fill="none" stroke="#000000" d="M171.1784,-233.195C159.3377,-216.1354 125.3312,-167.1402 113.4925,-150.0834"/>
</g>
<!-- 11 -->
<g id="node12" class="node">
<title>11</title>
<ellipse fill="none" stroke="#000000" cx="60.0431" cy="-286.9842" rx="7" ry="7"/>
<text text-anchor="middle" x="60.0431" y="-285.1842" font-family="Times,serif" font-size="6.00" fill="#000000">11</text>
</g>
<!-- 8&#45;&#45;11 -->
<g id="edge14" class="edge">
<title>8--11</title>
<path fill="none" stroke="#000000" d="M13.9345,-275.1958C24.044,-277.7805 42.7324,-282.5585 52.9377,-285.1676"/>
</g>
<!-- 11&#45;&#45;1 -->
<g id="edge15" class="edge">
<title>11--1</title>
<path fill="none" stroke="#000000" d="M62.4223,-280.0947C70.7743,-255.9085 98.6997,-175.0416 107.0144,-150.9637"/>
</g>
</g>
</svg>