<?xml version="1.0" encoding="UTF-8" standalone="no"?><!DOCTYPE svg PUBLIC "-//W3C//DTD SVG 1.1//EN" "http://www.w3.org/Graphics/SVG/1.1/DTD/svg11.dtd"><!-- Generated by graphviz version 2.40.1 (20161225.0304)
 --><!-- Title: Group Pages: 1 --><svg xmlns="http://www.w3.org/2000/svg" xmlns:xlink="http://www.w3.org/1999/xlink" width="204pt" height="242pt" viewBox="0.00 0.00 203.65 241.82">
<g id="graph0" class="graph" transform="scale(1 1) rotate(0) translate(4 237.8194)">
<title>Group</title>
<polygon fill="#ffffff" stroke="transparent" points="-4,4 -4,-237.8194 199.6457,-237.8194 199.6457,4 -4,4"/>
<!-- 1 -->
<g id="node1" class="node">
<title>1</title>
<ellipse fill="#d3d3d3" stroke="#000000" cx="116.4986" cy="-116.9097" rx="7" ry="7"/>
<text text-anchor="middle" x="116.4986" y="-115.1097" font-family="Times,serif" font-size="6.00" fill="#000000">1</text>
</g>
<!-- 2 -->
<g id="node2" class="node">
<title>2</title>
<ellipse fill="none" stroke="#000000" cx="137.9644" cy="-7" rx="7" ry="7"/>
<text text-anchor="middle" x="137.9644" y="-5.2" font-family="Times,serif" font-size="6.00" fill="#000000">2</text>
</g>
<!-- 1&#45;&#45;2 -->
<g id="edge1" class="edge">
<title>1--2</title>
<path fill="none" stroke="#000000" d="M117.8414,-110.0343C121.6963,-90.2961 132.7678,-33.6078 136.6221,-13.8727"/>
</g>
<!-- 3 -->
<g id="node3" class="node">
<title>3</title>
<ellipse fill="none" stroke="#000000" cx="61.7493" cy="-62.1604" rx="7" ry="7"/>
<text text-anchor="middle" x="61.7493" y="-60.3604" font-family="Times,serif" font-size="6.00" fill="#000000">3</text>
</g>
<!-- 1&#45;&#45;3 -->
<g id="edge2" class="edge">
<title>1--3</title>
<path fill="none" stroke="#000000" d="M111.4461,-111.8571C101.069,-101.4801 77.4505,-77.8616 66.9493,-67.3604"/>
</g>
<!-- 4 -->
<g id="node6" class="node">
<title>4</title>
<ellipse fill="none" stroke="#000000" cx="188.6457" cy="-74.6466" rx="7" ry="7"/>
<text text-anchor="middle" x="188.6457" y="-72.8466" font-family="Times,serif" font-size="6.00" fill="#000000">4</text>
</g>
<!-- 1&#45;&#45;4 -->
<g id="edge6" class="edge">
<title>1--4</title>
<path fill="none" stroke="#000000" d="M122.6498,-113.3064C136.2804,-105.3217 168.8939,-86.217 182.5101,-78.2408"/>
</g>
<!-- 5 -->
<g id="node7" class="node">
<title>5</title>
<ellipse fill="none" stroke="#000000" cx="188.6457" cy="-159.1728" rx="7" ry="7"/>
<text text-anchor="middle" x="188.6457" y="-157.3728" font-family="Times,serif" font-size="6.00" fill="#000000">5</text>
</g>
<!-- 1&#45;&#45;5 -->
<g id="edge7" class="edge">
<title>1--5</title>
<path fill="none" stroke="#000000" d="M122.6498,-120.513C136.2804,-128.4977 168.8939,-147.6023 182.5101,-155.5786"/>
</g>
<!-- 8 -->
<g id="node8" class="node">
<title>8</title>
<ellipse fill="none" stroke="#000000" cx="137.9644" cy="-226.8194" rx="7" ry="7"/>
<text text-anchor="middle" x="137.9644" y="-225.0194" font-family="Times,serif" font-size="6.00" fill="#000000">8</text>
</g>
<!-- 1&#45;&#45;8 -->
<g id="edge8" class="edge">
<title>1--8</title>
<path fill="none" stroke="#000000" d="M117.8414,-123.785C121.6963,-143.5233 132.7678,-200.2116 136.6221,-219.9466"/>
</g>
<!-- 6 -->
<g id="node4" class="node">
<title>6</title>
<ellipse fill="none" stroke="#000000" cx="7" cy="-116.9097" rx="7" ry="7"/>
<text text-anchor="middle" x="7" y="-115.1097" font-family="Times,serif" font-size="6.00" fill="#000000">6</text>
</g>
<!-- 3&#45;&#45;6 -->
<g id="edge3" class="edge">
<title>3--6</title>
<path fill="none" stroke="#000000" d="M56.6968,-67.2129C46.3197,-77.59 22.7012,-101.2085 12.2,-111.7097"/>
</g>
<!-- 7 -->
<g id="node5" class="node">
<title>7</title>
<ellipse fill="none" stroke="#000000" cx="61.7493" cy="-171.659" rx="7" ry="7"/>
<text text-anchor="middle" x="61.7493" y="-169.859" font-family="Times,serif" font-size="6.00" fill="#000000">7</text>
</g>
<!-- 6&#45;&#45;7 -->
<g id="edge4" class="edge">
<title>6--7</title>
<path fill="none" stroke="#000000" d="M12.0525,-121.9622C22.4296,-132.3393 46.0481,-155.9578 56.5493,-166.459"/>
</g>
<!-- 7&#45;&#45;1 -->
<g id="edge5" class="edge">
<title>7--1</title>
<path fill="none" stroke="#000000" d="M66.8018,-166.6064C77.1789,-156.2294 100.7974,-132.6109 111.2986,-122.1097"/>
</g>
</g>
</svg>