<?xml version="1.0" encoding="UTF-8" standalone="no"?><!DOCTYPE svg PUBLIC "-//W3C//DTD SVG 1.1//EN" "http://www.w3.org/Graphics/SVG/1.1/DTD/svg11.dtd"><!-- Generated by graphviz version 2.40.1 (20161225.0304)
 --><!-- Title: Group Pages: 1 --><svg xmlns="http://www.w3.org/2000/svg" xmlns:xlink="http://www.w3.org/1999/xlink" width="422pt" height="172pt" viewBox="0.00 0.00 422.17 172.00">
<g id="graph0" class="graph" transform="scale(1 1) rotate(0) translate(4 168)">
<title>Group</title>
<polygon fill="#ffffff" stroke="transparent" points="-4,4 -4,-168 418.1735,-168 418.1735,4 -4,4"/>
<!-- 1 -->
<g id="node1" class="node">
<title>1</title>
<ellipse fill="#d3d3d3" stroke="#000000" cx="193.1735" cy="-157" rx="7" ry="7"/>
<text text-anchor="middle" x="193.1735" y="-155.2" font-family="Times,serif" font-size="6.00" fill="#000000">1</text>
</g>
<!-- 9 -->
<g id="node2" class="node">
<title>9</title>
<ellipse fill="none" stroke="#000000" cx="107.1735" cy="-107" rx="7" ry="7"/>
<text text-anchor="middle" x="107.1735" y="-105.2" font-family="Times,serif" font-size="6.00" fill="#000000">9</text>
</g>
<!-- 1&#45;&#45;9 -->
<g id="edge1" class="edge">
<title>1--9</title>
<path fill="none" stroke="#000000" d="M186.9886,-153.4041C171.121,-144.1787 129.1083,-119.7528 113.3024,-110.5633"/>
</g>
<!-- 10 -->
<g id="node5" class="node">
<title>10</title>
<ellipse fill="none" stroke="#000000" cx="139.1735" cy="-107" rx="7" ry="7"/>
<text text-anchor="middle" x="139.1735" y="-105.2" font-family="Times,serif" font-size="6.00" fill="#000000">10</text>
</g>
<!-- 1&#45;&#45;10 -->
<g id="edge5" class="edge">
<title>1--10</title>
<path fill="none" stroke="#000000" d="M187.7984,-152.023C177.4477,-142.439 154.8605,-121.525 144.5269,-111.9569"/>
</g>
<!-- 13 -->
<g id="node7" class="node">
<title>13</title>
<ellipse fill="none" stroke="#000000" cx="43.1735" cy="-107" rx="7" ry="7"/>
<text text-anchor="middle" x="43.1735" y="-105.2" font-family="Times,serif" font-size="6.00" fill="#000000">13</text>
</g>
<!-- 1&#45;&#45;13 -->
<g id="edge9" class="edge">
<title>1--13</title>
<path fill="none" stroke="#000000" d="M186.3974,-155.0914C166.5911,-149.456 107.1659,-132.1447 59.1735,-114 55.9971,-112.7991 52.5376,-111.3091 49.6506,-110.0129"/>
</g>
<!-- 14 -->
<g id="node9" class="node">
<title>14</title>
<ellipse fill="none" stroke="#000000" cx="75.1735" cy="-107" rx="7" ry="7"/>
<text text-anchor="middle" x="75.1735" y="-105.2" font-family="Times,serif" font-size="6.00" fill="#000000">14</text>
</g>
<!-- 1&#45;&#45;14 -->
<g id="edge13" class="edge">
<title>1--14</title>
<path fill="none" stroke="#000000" d="M186.234,-154.1123C169.7284,-147.2358 126.8421,-129.3201 91.1735,-114 88.0533,-112.6598 84.6008,-111.1525 81.704,-109.8807"/>
</g>
<!-- 2 -->
<g id="node11" class="node">
<title>2</title>
<ellipse fill="none" stroke="#000000" cx="247.1735" cy="-107" rx="7" ry="7"/>
<text text-anchor="middle" x="247.1735" y="-105.2" font-family="Times,serif" font-size="6.00" fill="#000000">2</text>
</g>
<!-- 1&#45;&#45;2 -->
<g id="edge17" class="edge">
<title>1--2</title>
<path fill="none" stroke="#000000" d="M198.5487,-152.023C208.8994,-142.439 231.4866,-121.525 241.8201,-111.9569"/>
</g>
<!-- 4 -->
<g id="node12" class="node">
<title>4</title>
<ellipse fill="none" stroke="#000000" cx="279.1735" cy="-107" rx="7" ry="7"/>
<text text-anchor="middle" x="279.1735" y="-105.2" font-family="Times,serif" font-size="6.00" fill="#000000">4</text>
</g>
<!-- 1&#45;&#45;4 -->
<g id="edge18" class="edge">
<title>1--4</title>
<path fill="none" stroke="#000000" d="M199.3584,-153.4041C215.2261,-144.1787 257.2387,-119.7528 273.0446,-110.5633"/>
</g>
<!-- 5 -->
<g id="node13" class="node">
<title>5</title>
<ellipse fill="none" stroke="#000000" cx="311.1735" cy="-107" rx="7" ry="7"/>
<text text-anchor="middle" x="311.1735" y="-105.2" font-family="Times,serif" font-size="6.00" fill="#000000">5</text>
</g>
<!-- 1&#45;&#45;5 -->
<g id="edge19" class="edge">
<title>1--5</title>
<path fill="none" stroke="#000000" d="M200.113,-154.1123C216.6186,-147.2358 259.5049,-129.3201 295.1735,-114 298.2937,-112.6598 301.7462,-111.1525 304.6431,-109.8807"/>
</g>
<!-- 6 -->
<g id="node14" class="node">
<title>6</title>
<ellipse fill="none" stroke="#000000" cx="343.1735" cy="-107" rx="7" ry="7"/>
<text text-anchor="middle" x="343.1735" y="-105.2" font-family="Times,serif" font-size="6.00" fill="#000000">6</text>
</g>
<!-- 1&#45;&#45;6 -->
<g id="edge20" class="edge">
<title>1--6</title>
<path fill="none" stroke="#000000" d="M199.9496,-155.0914C219.756,-149.456 279.1811,-132.1447 327.1735,-114 330.3499,-112.7991 333.8094,-111.3091 336.6964,-110.0129"/>
</g>
<!-- 7 -->
<g id="node15" class="node">
<title>7</title>
<ellipse fill="none" stroke="#000000" cx="375.1735" cy="-107" rx="7" ry="7"/>
<text text-anchor="middle" x="375.1735" y="-105.2" font-family="Times,serif" font-size="6.00" fill="#000000">7</text>
</g>
<!-- 1&#45;&#45;7 -->
<g id="edge21" class="edge">
<title>1--7</title>
<path fill="none" stroke="#000000" d="M200.2498,-155.5889C223.4175,-150.8801 298.9629,-134.8215 359.1735,-114 362.3829,-112.8902 365.8465,-111.4116 368.7277,-110.0994"/>
</g>
<!-- 8 -->
<g id="node16" class="node">
<title>8</title>
<ellipse fill="none" stroke="#000000" cx="407.1735" cy="-107" rx="7" ry="7"/>
<text text-anchor="middle" x="407.1735" y="-105.2" font-family="Times,serif" font-size="6.00" fill="#000000">8</text>
</g>
<!-- 1&#45;&#45;8 -->
<g id="edge22" class="edge">
<title>1--8</title>
<path fill="none" stroke="#000000" d="M200.1439,-156.0003C225.9334,-152.1945 318.2181,-137.6217 391.1735,-114 394.4042,-112.954 397.8705,-111.4834 400.748,-110.1599"/>
</g>
<!-- 3 -->
<g id="node3" class="node">
<title>3</title>
<ellipse fill="none" stroke="#000000" cx="91.1735" cy="-57" rx="7" ry="7"/>
<text text-anchor="middle" x="91.1735" y="-55.2" font-family="Times,serif" font-size="6.00" fill="#000000">3</text>
</g>
<!-- 9&#45;&#45;3 -->
<g id="edge2" class="edge">
<title>9--3</title>
<path fill="none" stroke="#000000" d="M104.9488,-100.0477C101.8919,-90.4951 96.4262,-73.4147 93.3793,-63.8932"/>
</g>
<!-- 11 -->
<g id="node4" class="node">
<title>11</title>
<ellipse fill="none" stroke="#000000" cx="8.1735" cy="-7" rx="7" ry="7"/>
<text text-anchor="middle" x="8.1735" y="-5.2" font-family="Times,serif" font-size="6.00" fill="#000000">11</text>
</g>
<!-- 3&#45;&#45;11 -->
<g id="edge3" class="edge">
<title>3--11</title>
<path fill="none" stroke="#000000" d="M84.935,-53.2419C69.5533,-43.9758 29.9419,-20.1135 14.4844,-10.8017"/>
</g>
<!-- 12 -->
<g id="node6" class="node">
<title>12</title>
<ellipse fill="none" stroke="#000000" cx="68.1735" cy="-7" rx="7" ry="7"/>
<text text-anchor="middle" x="68.1735" y="-5.2" font-family="Times,serif" font-size="6.00" fill="#000000">12</text>
</g>
<!-- 3&#45;&#45;12 -->
<g id="edge7" class="edge">
<title>3--12</title>
<path fill="none" stroke="#000000" d="M88.1667,-50.4634C83.7344,-40.828 75.4991,-22.9251 71.1084,-13.3801"/>
</g>
<!-- 15 -->
<g id="node8" class="node">
<title>15</title>
<ellipse fill="none" stroke="#000000" cx="114.1735" cy="-7" rx="7" ry="7"/>
<text text-anchor="middle" x="114.1735" y="-5.2" font-family="Times,serif" font-size="6.00" fill="#000000">15</text>
</g>
<!-- 3&#45;&#45;15 -->
<g id="edge11" class="edge">
<title>3--15</title>
<path fill="none" stroke="#000000" d="M94.1804,-50.4634C98.6126,-40.828 106.848,-22.9251 111.2386,-13.3801"/>
</g>
<!-- 16 -->
<g id="node10" class="node">
<title>16</title>
<ellipse fill="none" stroke="#000000" cx="179.1735" cy="-7" rx="7" ry="7"/>
<text text-anchor="middle" x="179.1735" y="-5.2" font-family="Times,serif" font-size="6.00" fill="#000000">16</text>
</g>
<!-- 3&#45;&#45;16 -->
<g id="edge15" class="edge">
<title>3--16</title>
<path fill="none" stroke="#000000" d="M97.5023,-53.4041C113.7389,-44.1787 156.7286,-19.7528 172.9021,-10.5633"/>
</g>
<!-- 11&#45;&#45;1 -->
<g id="edge4" class="edge">
<title>11--1</title>
<path fill="none" stroke="#000000" d="M6.2681,-13.7583C1.4924,-32.2834 -8.8929,-84.4537 16.1735,-114 38.8817,-140.7666 155.3119,-153.4465 185.8381,-156.3424"/>
</g>
<!-- 10&#45;&#45;3 -->
<g id="edge6" class="edge">
<title>10--3</title>
<path fill="none" stroke="#000000" d="M134.0367,-101.6491C124.7497,-91.9751 105.2826,-71.697 96.1296,-62.1626"/>
</g>
<!-- 12&#45;&#45;1 -->
<g id="edge8" class="edge">
<title>12--1</title>
<path fill="none" stroke="#000000" d="M63.1208,-11.9766C47.2741,-28.1825 1.1168,-80.3337 27.1735,-114 47.3082,-140.0149 156.3914,-153.1594 185.8424,-156.2673"/>
</g>
<!-- 13&#45;&#45;3 -->
<g id="edge10" class="edge">
<title>13--3</title>
<path fill="none" stroke="#000000" d="M48.3104,-101.6491C57.5974,-91.9751 77.0644,-71.697 86.2175,-62.1626"/>
</g>
<!-- 15&#45;&#45;1 -->
<g id="edge12" class="edge">
<title>15--1</title>
<path fill="none" stroke="#000000" d="M117.4675,-13.2543C130.2877,-37.5965 176.7843,-125.8812 189.779,-150.5547"/>
</g>
<!-- 14&#45;&#45;3 -->
<g id="edge14" class="edge">
<title>14--3</title>
<path fill="none" stroke="#000000" d="M77.3982,-100.0477C80.4551,-90.4951 85.9208,-73.4147 88.9677,-63.8932"/>
</g>
<!-- 16&#45;&#45;1 -->
<g id="edge16" class="edge">
<title>16--1</title>
<path fill="none" stroke="#000000" d="M180.9843,-13.943C183.1055,-22.396 186.5376,-37.1376 188.1735,-50 192.9367,-87.4495 193.2898,-132.788 193.2318,-149.9558"/>
</g>
</g>
</svg>