<?xml version="1.0" encoding="UTF-8" standalone="no"?><!DOCTYPE svg PUBLIC "-//W3C//DTD SVG 1.1//EN" "http://www.w3.org/Graphics/SVG/1.1/DTD/svg11.dtd"><!-- Generated by graphviz version 2.40.1 (20161225.0304)
 --><!-- Title: Group Pages: 1 --><svg xmlns="http://www.w3.org/2000/svg" xmlns:xlink="http://www.w3.org/1999/xlink" width="370pt" height="384pt" viewBox="0.00 0.00 370.48 384.36">
<g id="graph0" class="graph" transform="scale(1 1) rotate(0) translate(4 380.3555)">
<title>Group</title>
<polygon fill="#ffffff" stroke="transparent" points="-4,4 -4,-380.3555 366.478,-380.3555 366.478,4 -4,4"/>
<!-- 1 -->
<g id="node1" class="node">
<title>1</title>
<ellipse fill="#d3d3d3" stroke="#000000" cx="280.7465" cy="-188.1778" rx="7" ry="7"/>
<text text-anchor="middle" x="280.7465" y="-186.3778" font-family="Times,serif" font-size="6.00" fill="#000000">1</text>
</g>
<!-- 2 -->
<g id="node2" class="node">
<title>2</title>
<ellipse fill="none" stroke="#000000" cx="261.2439" cy="-7" rx="7" ry="7"/>
<text text-anchor="middle" x="261.2439" y="-5.2" font-family="Times,serif" font-size="6.00" fill="#000000">2</text>
</g>
<!-- 1&#45;&#45;2 -->
<g id="edge1" class="edge">
<title>1--2</title>
<path fill="none" stroke="#000000" d="M279.9578,-180.851C276.808,-151.5897 265.1499,-43.2866 262.0211,-14.2194"/>
</g>
<!-- 3 -->
<g id="node3" class="node">
<title>3</title>
<ellipse fill="none" stroke="#000000" cx="322.3365" cy="-66.7194" rx="7" ry="7"/>
<text text-anchor="middle" x="322.3365" y="-64.9194" font-family="Times,serif" font-size="6.00" fill="#000000">3</text>
</g>
<!-- 1&#45;&#45;3 -->
<g id="edge2" class="edge">
<title>1--3</title>
<path fill="none" stroke="#000000" d="M283.1017,-181.2996C290.422,-159.9216 312.7221,-94.7968 320.0071,-73.5221"/>
</g>
<!-- 4 -->
<g id="node4" class="node">
<title>4</title>
<ellipse fill="none" stroke="#000000" cx="355.478" cy="-145.4616" rx="7" ry="7"/>
<text text-anchor="middle" x="355.478" y="-143.6616" font-family="Times,serif" font-size="6.00" fill="#000000">4</text>
</g>
<!-- 1&#45;&#45;4 -->
<g id="edge3" class="edge">
<title>1--4</title>
<path fill="none" stroke="#000000" d="M286.8621,-184.6821C300.8059,-176.7119 334.8424,-157.2568 349.0661,-149.1266"/>
</g>
<!-- 5 -->
<g id="node5" class="node">
<title>5</title>
<ellipse fill="none" stroke="#000000" cx="254.606" cy="-107.7257" rx="7" ry="7"/>
<text text-anchor="middle" x="254.606" y="-105.9257" font-family="Times,serif" font-size="6.00" fill="#000000">5</text>
</g>
<!-- 1&#45;&#45;5 -->
<g id="edge4" class="edge">
<title>1--5</title>
<path fill="none" stroke="#000000" d="M278.5178,-181.3185C273.5791,-166.1188 261.7625,-129.7512 256.8291,-114.5676"/>
</g>
<!-- 14 -->
<g id="node6" class="node">
<title>14</title>
<ellipse fill="none" stroke="#000000" cx="186.1694" cy="-318.352" rx="7" ry="7"/>
<text text-anchor="middle" x="186.1694" y="-316.552" font-family="Times,serif" font-size="6.00" fill="#000000">14</text>
</g>
<!-- 1&#45;&#45;14 -->
<g id="edge21" class="edge">
<title>1--14</title>
<path fill="none" stroke="#000000" d="M276.437,-194.1093C260.609,-215.8946 205.8015,-291.3307 190.2893,-312.6814"/>
</g>
<!-- 6 -->
<g id="node8" class="node">
<title>6</title>
<ellipse fill="none" stroke="#000000" cx="186.1694" cy="-58.0036" rx="7" ry="7"/>
<text text-anchor="middle" x="186.1694" y="-56.2036" font-family="Times,serif" font-size="6.00" fill="#000000">6</text>
</g>
<!-- 1&#45;&#45;6 -->
<g id="edge8" class="edge">
<title>1--6</title>
<path fill="none" stroke="#000000" d="M276.437,-182.2462C260.609,-160.4609 205.8015,-85.0248 190.2893,-63.6741"/>
</g>
<!-- 7 -->
<g id="node10" class="node">
<title>7</title>
<ellipse fill="none" stroke="#000000" cx="33.1405" cy="-107.7257" rx="7" ry="7"/>
<text text-anchor="middle" x="33.1405" y="-105.9257" font-family="Times,serif" font-size="6.00" fill="#000000">7</text>
</g>
<!-- 1&#45;&#45;7 -->
<g id="edge12" class="edge">
<title>1--7</title>
<path fill="none" stroke="#000000" d="M273.8657,-185.9421C238.2494,-174.3696 75.1283,-121.3684 39.8716,-109.9128"/>
</g>
<!-- 8 -->
<g id="node12" class="node">
<title>8</title>
<ellipse fill="none" stroke="#000000" cx="33.1405" cy="-268.6299" rx="7" ry="7"/>
<text text-anchor="middle" x="33.1405" y="-266.8299" font-family="Times,serif" font-size="6.00" fill="#000000">8</text>
</g>
<!-- 1&#45;&#45;8 -->
<g id="edge16" class="edge">
<title>1--8</title>
<path fill="none" stroke="#000000" d="M273.8657,-190.4135C238.2494,-201.9859 75.1283,-254.9872 39.8716,-266.4428"/>
</g>
<!-- 13 -->
<g id="node14" class="node">
<title>13</title>
<ellipse fill="none" stroke="#000000" cx="355.478" cy="-230.894" rx="7" ry="7"/>
<text text-anchor="middle" x="355.478" y="-229.094" font-family="Times,serif" font-size="6.00" fill="#000000">13</text>
</g>
<!-- 1&#45;&#45;13 -->
<g id="edge20" class="edge">
<title>1--13</title>
<path fill="none" stroke="#000000" d="M286.8621,-191.6734C300.8059,-199.6436 334.8424,-219.0987 349.0661,-227.2289"/>
</g>
<!-- 15 -->
<g id="node15" class="node">
<title>15</title>
<ellipse fill="none" stroke="#000000" cx="322.3365" cy="-309.6362" rx="7" ry="7"/>
<text text-anchor="middle" x="322.3365" y="-307.8362" font-family="Times,serif" font-size="6.00" fill="#000000">15</text>
</g>
<!-- 1&#45;&#45;15 -->
<g id="edge22" class="edge">
<title>1--15</title>
<path fill="none" stroke="#000000" d="M283.1017,-195.0559C290.422,-216.4339 312.7221,-281.5588 320.0071,-302.8335"/>
</g>
<!-- 16 -->
<g id="node16" class="node">
<title>16</title>
<ellipse fill="none" stroke="#000000" cx="261.2439" cy="-369.3555" rx="7" ry="7"/>
<text text-anchor="middle" x="261.2439" y="-367.5555" font-family="Times,serif" font-size="6.00" fill="#000000">16</text>
</g>
<!-- 1&#45;&#45;16 -->
<g id="edge23" class="edge">
<title>1--16</title>
<path fill="none" stroke="#000000" d="M279.9578,-195.5046C276.808,-224.7659 265.1499,-333.0689 262.0211,-362.1361"/>
</g>
<!-- 5&#45;&#45;14 -->
<g id="edge5" class="edge">
<title>5--14</title>
<path fill="none" stroke="#000000" d="M252.329,-114.7336C241.8922,-146.8549 198.6946,-279.8033 188.3858,-311.5307"/>
</g>
<!-- 9 -->
<g id="node7" class="node">
<title>9</title>
<ellipse fill="none" stroke="#000000" cx="254.606" cy="-268.6299" rx="7" ry="7"/>
<text text-anchor="middle" x="254.606" y="-266.8299" font-family="Times,serif" font-size="6.00" fill="#000000">9</text>
</g>
<!-- 14&#45;&#45;9 -->
<g id="edge6" class="edge">
<title>14--9</title>
<path fill="none" stroke="#000000" d="M192.0043,-314.1127C204.9339,-304.7188 235.8701,-282.2423 248.7859,-272.8584"/>
</g>
<!-- 10 -->
<g id="node9" class="node">
<title>10</title>
<ellipse fill="none" stroke="#000000" cx="101.5771" cy="-58.0036" rx="7" ry="7"/>
<text text-anchor="middle" x="101.5771" y="-56.2036" font-family="Times,serif" font-size="6.00" fill="#000000">10</text>
</g>
<!-- 14&#45;&#45;10 -->
<g id="edge10" class="edge">
<title>14--10</title>
<path fill="none" stroke="#000000" d="M183.9933,-311.6547C172.2009,-275.3613 116.0401,-102.5162 103.896,-65.1405"/>
</g>
<!-- 11 -->
<g id="node11" class="node">
<title>11</title>
<ellipse fill="none" stroke="#000000" cx="7" cy="-188.1778" rx="7" ry="7"/>
<text text-anchor="middle" x="7" y="-186.3778" font-family="Times,serif" font-size="6.00" fill="#000000">11</text>
</g>
<!-- 14&#45;&#45;11 -->
<g id="edge14" class="edge">
<title>14--11</title>
<path fill="none" stroke="#000000" d="M180.2081,-314.0208C152.8841,-294.1688 39.7914,-212.0021 12.8025,-192.3935"/>
</g>
<!-- 12 -->
<g id="node13" class="node">
<title>12</title>
<ellipse fill="none" stroke="#000000" cx="101.5771" cy="-318.352" rx="7" ry="7"/>
<text text-anchor="middle" x="101.5771" y="-316.552" font-family="Times,serif" font-size="6.00" fill="#000000">12</text>
</g>
<!-- 14&#45;&#45;12 -->
<g id="edge18" class="edge">
<title>14--12</title>
<path fill="none" stroke="#000000" d="M178.9571,-318.352C162.9753,-318.352 124.736,-318.352 108.7711,-318.352"/>
</g>
<!-- 9&#45;&#45;1 -->
<g id="edge7" class="edge">
<title>9--1</title>
<path fill="none" stroke="#000000" d="M256.8348,-261.7706C261.7734,-246.5709 273.59,-210.2032 278.5234,-195.0197"/>
</g>
<!-- 6&#45;&#45;14 -->
<g id="edge9" class="edge">
<title>6--14</title>
<path fill="none" stroke="#000000" d="M186.1694,-65.2385C186.1694,-102.6877 186.1694,-274.2034 186.1694,-311.2744"/>
</g>
<!-- 10&#45;&#45;1 -->
<g id="edge11" class="edge">
<title>10--1</title>
<path fill="none" stroke="#000000" d="M107.5384,-62.3347C134.8624,-82.1868 247.9551,-164.3534 274.944,-183.962"/>
</g>
<!-- 7&#45;&#45;14 -->
<g id="edge13" class="edge">
<title>7--14</title>
<path fill="none" stroke="#000000" d="M37.5553,-113.8022C59.9017,-144.5594 160.3262,-282.7818 182.0267,-312.6501"/>
</g>
<!-- 11&#45;&#45;1 -->
<g id="edge15" class="edge">
<title>11--1</title>
<path fill="none" stroke="#000000" d="M14.0419,-188.1778C52.2031,-188.1778 233.9432,-188.1778 273.2423,-188.1778"/>
</g>
<!-- 8&#45;&#45;14 -->
<g id="edge17" class="edge">
<title>8--14</title>
<path fill="none" stroke="#000000" d="M40.1134,-270.8955C65.7236,-279.2167 154.404,-308.0308 179.5033,-316.186"/>
</g>
<!-- 12&#45;&#45;1 -->
<g id="edge19" class="edge">
<title>12--1</title>
<path fill="none" stroke="#000000" d="M107.5384,-314.0208C134.8624,-294.1688 247.9551,-212.0021 274.944,-192.3935"/>
</g>
</g>
</svg>