<?xml version="1.0" encoding="UTF-8" standalone="no"?><!DOCTYPE svg PUBLIC "-//W3C//DTD SVG 1.1//EN" "http://www.w3.org/Graphics/SVG/1.1/DTD/svg11.dtd"><!-- Generated by graphviz version 2.40.1 (20161225.0304)
 --><!-- Title: Group Pages: 1 --><svg xmlns="http://www.w3.org/2000/svg" xmlns:xlink="http://www.w3.org/1999/xlink" width="460pt" height="272pt" viewBox="0.00 0.00 460.00 272.00">
<g id="graph0" class="graph" transform="scale(1 1) rotate(0) translate(4 268)">
<title>Group</title>
<polygon fill="#ffffff" stroke="transparent" points="-4,4 -4,-268 456,-268 456,4 -4,4"/>
<!-- 1 -->
<g id="node1" class="node">
<title>1</title>
<ellipse fill="#d3d3d3" stroke="#000000" cx="223" cy="-257" rx="7" ry="7"/>
<text text-anchor="middle" x="223" y="-255.2" font-family="Times,serif" font-size="6.00" fill="#000000">1</text>
</g>
<!-- 10 -->
<g id="node2" class="node">
<title>10</title>
<ellipse fill="none" stroke="#000000" cx="111" cy="-207" rx="7" ry="7"/>
<text text-anchor="middle" x="111" y="-205.2" font-family="Times,serif" font-size="6.00" fill="#000000">10</text>
</g>
<!-- 1&#45;&#45;10 -->
<g id="edge1" class="edge">
<title>1--10</title>
<path fill="none" stroke="#000000" d="M216.3293,-254.022C196.3619,-245.108 137.2316,-218.7106 117.4954,-209.8998"/>
</g>
<!-- 11 -->
<g id="node7" class="node">
<title>11</title>
<ellipse fill="none" stroke="#000000" cx="143" cy="-207" rx="7" ry="7"/>
<text text-anchor="middle" x="143" y="-205.2" font-family="Times,serif" font-size="6.00" fill="#000000">11</text>
</g>
<!-- 1&#45;&#45;11 -->
<g id="edge7" class="edge">
<title>1--11</title>
<path fill="none" stroke="#000000" d="M216.987,-253.2419C202.1612,-243.9758 163.9816,-220.1135 149.0828,-210.8017"/>
</g>
<!-- 12 -->
<g id="node10" class="node">
<title>12</title>
<ellipse fill="none" stroke="#000000" cx="175" cy="-207" rx="7" ry="7"/>
<text text-anchor="middle" x="175" y="-205.2" font-family="Times,serif" font-size="6.00" fill="#000000">12</text>
</g>
<!-- 1&#45;&#45;12 -->
<g id="edge13" class="edge">
<title>1--12</title>
<path fill="none" stroke="#000000" d="M217.8632,-251.6491C208.5761,-241.9751 189.1091,-221.697 179.9561,-212.1626"/>
</g>
<!-- 13 -->
<g id="node13" class="node">
<title>13</title>
<ellipse fill="none" stroke="#000000" cx="207" cy="-207" rx="7" ry="7"/>
<text text-anchor="middle" x="207" y="-205.2" font-family="Times,serif" font-size="6.00" fill="#000000">13</text>
</g>
<!-- 1&#45;&#45;13 -->
<g id="edge19" class="edge">
<title>1--13</title>
<path fill="none" stroke="#000000" d="M220.7753,-250.0477C217.7184,-240.4951 212.2527,-223.4147 209.2058,-213.8932"/>
</g>
<!-- 14 -->
<g id="node16" class="node">
<title>14</title>
<ellipse fill="none" stroke="#000000" cx="239" cy="-207" rx="7" ry="7"/>
<text text-anchor="middle" x="239" y="-205.2" font-family="Times,serif" font-size="6.00" fill="#000000">14</text>
</g>
<!-- 1&#45;&#45;14 -->
<g id="edge25" class="edge">
<title>1--14</title>
<path fill="none" stroke="#000000" d="M225.2247,-250.0477C228.2816,-240.4951 233.7473,-223.4147 236.7942,-213.8932"/>
</g>
<!-- 15 -->
<g id="node19" class="node">
<title>15</title>
<ellipse fill="none" stroke="#000000" cx="271" cy="-207" rx="7" ry="7"/>
<text text-anchor="middle" x="271" y="-205.2" font-family="Times,serif" font-size="6.00" fill="#000000">15</text>
</g>
<!-- 1&#45;&#45;15 -->
<g id="edge31" class="edge">
<title>1--15</title>
<path fill="none" stroke="#000000" d="M228.1368,-251.6491C237.4239,-241.9751 256.8909,-221.697 266.0439,-212.1626"/>
</g>
<!-- 16 -->
<g id="node22" class="node">
<title>16</title>
<ellipse fill="none" stroke="#000000" cx="303" cy="-207" rx="7" ry="7"/>
<text text-anchor="middle" x="303" y="-205.2" font-family="Times,serif" font-size="6.00" fill="#000000">16</text>
</g>
<!-- 1&#45;&#45;16 -->
<g id="edge37" class="edge">
<title>1--16</title>
<path fill="none" stroke="#000000" d="M229.013,-253.2419C243.8388,-243.9758 282.0184,-220.1135 296.9172,-210.8017"/>
</g>
<!-- 17 -->
<g id="node3" class="node">
<title>17</title>
<ellipse fill="none" stroke="#000000" cx="207" cy="-157" rx="7" ry="7"/>
<text text-anchor="middle" x="207" y="-155.2" font-family="Times,serif" font-size="6.00" fill="#000000">17</text>
</g>
<!-- 10&#45;&#45;17 -->
<g id="edge2" class="edge">
<title>10--17</title>
<path fill="none" stroke="#000000" d="M117.2988,-203.7194C134.6517,-194.6814 183.023,-169.488 200.5521,-160.3583"/>
</g>
<!-- 2 -->
<g id="node4" class="node">
<title>2</title>
<ellipse fill="none" stroke="#000000" cx="111" cy="-107" rx="7" ry="7"/>
<text text-anchor="middle" x="111" y="-105.2" font-family="Times,serif" font-size="6.00" fill="#000000">2</text>
</g>
<!-- 17&#45;&#45;2 -->
<g id="edge3" class="edge">
<title>17--2</title>
<path fill="none" stroke="#000000" d="M200.7012,-153.7194C183.3483,-144.6814 134.977,-119.488 117.4479,-110.3583"/>
</g>
<!-- 3 -->
<g id="node8" class="node">
<title>3</title>
<ellipse fill="none" stroke="#000000" cx="143" cy="-107" rx="7" ry="7"/>
<text text-anchor="middle" x="143" y="-105.2" font-family="Times,serif" font-size="6.00" fill="#000000">3</text>
</g>
<!-- 17&#45;&#45;3 -->
<g id="edge9" class="edge">
<title>17--3</title>
<path fill="none" stroke="#000000" d="M201.0938,-152.3857C188.8396,-142.8122 160.7891,-120.8977 148.7077,-111.4591"/>
</g>
<!-- 4 -->
<g id="node11" class="node">
<title>4</title>
<ellipse fill="none" stroke="#000000" cx="175" cy="-107" rx="7" ry="7"/>
<text text-anchor="middle" x="175" y="-105.2" font-family="Times,serif" font-size="6.00" fill="#000000">4</text>
</g>
<!-- 17&#45;&#45;4 -->
<g id="edge15" class="edge">
<title>17--4</title>
<path fill="none" stroke="#000000" d="M203.0762,-150.869C196.9345,-141.2727 185.1173,-122.8083 178.9559,-113.1811"/>
</g>
<!-- 5 -->
<g id="node14" class="node">
<title>5</title>
<ellipse fill="none" stroke="#000000" cx="207" cy="-107" rx="7" ry="7"/>
<text text-anchor="middle" x="207" y="-105.2" font-family="Times,serif" font-size="6.00" fill="#000000">5</text>
</g>
<!-- 17&#45;&#45;5 -->
<g id="edge21" class="edge">
<title>17--5</title>
<path fill="none" stroke="#000000" d="M207,-149.6223C207,-140.0603 207,-123.5004 207,-114.0842"/>
</g>
<!-- 6 -->
<g id="node17" class="node">
<title>6</title>
<ellipse fill="none" stroke="#000000" cx="239" cy="-107" rx="7" ry="7"/>
<text text-anchor="middle" x="239" y="-105.2" font-family="Times,serif" font-size="6.00" fill="#000000">6</text>
</g>
<!-- 17&#45;&#45;6 -->
<g id="edge27" class="edge">
<title>17--6</title>
<path fill="none" stroke="#000000" d="M210.9238,-150.869C217.0655,-141.2727 228.8827,-122.8083 235.0441,-113.1811"/>
</g>
<!-- 7 -->
<g id="node20" class="node">
<title>7</title>
<ellipse fill="none" stroke="#000000" cx="271" cy="-107" rx="7" ry="7"/>
<text text-anchor="middle" x="271" y="-105.2" font-family="Times,serif" font-size="6.00" fill="#000000">7</text>
</g>
<!-- 17&#45;&#45;7 -->
<g id="edge33" class="edge">
<title>17--7</title>
<path fill="none" stroke="#000000" d="M212.9063,-152.3857C225.1604,-142.8122 253.2109,-120.8977 265.2923,-111.4591"/>
</g>
<!-- 8 -->
<g id="node23" class="node">
<title>8</title>
<ellipse fill="none" stroke="#000000" cx="303" cy="-107" rx="7" ry="7"/>
<text text-anchor="middle" x="303" y="-105.2" font-family="Times,serif" font-size="6.00" fill="#000000">8</text>
</g>
<!-- 17&#45;&#45;8 -->
<g id="edge39" class="edge">
<title>17--8</title>
<path fill="none" stroke="#000000" d="M213.2988,-153.7194C230.6517,-144.6814 279.023,-119.488 296.5521,-110.3583"/>
</g>
<!-- 9 -->
<g id="node5" class="node">
<title>9</title>
<ellipse fill="none" stroke="#000000" cx="223" cy="-57" rx="7" ry="7"/>
<text text-anchor="middle" x="223" y="-55.2" font-family="Times,serif" font-size="6.00" fill="#000000">9</text>
</g>
<!-- 2&#45;&#45;9 -->
<g id="edge4" class="edge">
<title>2--9</title>
<path fill="none" stroke="#000000" d="M117.6707,-104.022C137.6381,-95.108 196.7684,-68.7106 216.5046,-59.8998"/>
</g>
<!-- 18 -->
<g id="node6" class="node">
<title>18</title>
<ellipse fill="none" stroke="#000000" cx="27" cy="-7" rx="7" ry="7"/>
<text text-anchor="middle" x="27" y="-5.2" font-family="Times,serif" font-size="6.00" fill="#000000">18</text>
</g>
<!-- 9&#45;&#45;18 -->
<g id="edge5" class="edge">
<title>9--18</title>
<path fill="none" stroke="#000000" d="M216.0243,-55.2205C185.6097,-47.4617 64.7506,-16.6303 34.097,-8.8105"/>
</g>
<!-- 19 -->
<g id="node9" class="node">
<title>19</title>
<ellipse fill="none" stroke="#000000" cx="130" cy="-7" rx="7" ry="7"/>
<text text-anchor="middle" x="130" y="-5.2" font-family="Times,serif" font-size="6.00" fill="#000000">19</text>
</g>
<!-- 9&#45;&#45;19 -->
<g id="edge11" class="edge">
<title>9--19</title>
<path fill="none" stroke="#000000" d="M216.6077,-53.5633C199.536,-44.385 153.0312,-19.3824 136.1921,-10.3291"/>
</g>
<!-- 20 -->
<g id="node12" class="node">
<title>20</title>
<ellipse fill="none" stroke="#000000" cx="198" cy="-7" rx="7" ry="7"/>
<text text-anchor="middle" x="198" y="-5.2" font-family="Times,serif" font-size="6.00" fill="#000000">20</text>
</g>
<!-- 9&#45;&#45;20 -->
<g id="edge17" class="edge">
<title>9--20</title>
<path fill="none" stroke="#000000" d="M219.7317,-50.4634C214.914,-40.828 205.9626,-22.9251 201.1901,-13.3801"/>
</g>
<!-- 21 -->
<g id="node15" class="node">
<title>21</title>
<ellipse fill="none" stroke="#000000" cx="248" cy="-7" rx="7" ry="7"/>
<text text-anchor="middle" x="248" y="-5.2" font-family="Times,serif" font-size="6.00" fill="#000000">21</text>
</g>
<!-- 9&#45;&#45;21 -->
<g id="edge23" class="edge">
<title>9--21</title>
<path fill="none" stroke="#000000" d="M226.2683,-50.4634C231.086,-40.828 240.0374,-22.9251 244.8099,-13.3801"/>
</g>
<!-- 22 -->
<g id="node18" class="node">
<title>22</title>
<ellipse fill="none" stroke="#000000" cx="320" cy="-7" rx="7" ry="7"/>
<text text-anchor="middle" x="320" y="-5.2" font-family="Times,serif" font-size="6.00" fill="#000000">22</text>
</g>
<!-- 9&#45;&#45;22 -->
<g id="edge29" class="edge">
<title>9--22</title>
<path fill="none" stroke="#000000" d="M229.3644,-53.7194C246.8981,-44.6814 295.7732,-19.488 313.4849,-10.3583"/>
</g>
<!-- 23 -->
<g id="node21" class="node">
<title>23</title>
<ellipse fill="none" stroke="#000000" cx="375" cy="-7" rx="7" ry="7"/>
<text text-anchor="middle" x="375" y="-5.2" font-family="Times,serif" font-size="6.00" fill="#000000">23</text>
</g>
<!-- 9&#45;&#45;23 -->
<g id="edge35" class="edge">
<title>9--23</title>
<path fill="none" stroke="#000000" d="M229.9261,-54.7217C255.2479,-46.3922 342.6451,-17.6431 368.0332,-9.2917"/>
</g>
<!-- 24 -->
<g id="node24" class="node">
<title>24</title>
<ellipse fill="none" stroke="#000000" cx="421" cy="-7" rx="7" ry="7"/>
<text text-anchor="middle" x="421" y="-5.2" font-family="Times,serif" font-size="6.00" fill="#000000">24</text>
</g>
<!-- 9&#45;&#45;24 -->
<g id="edge41" class="edge">
<title>9--24</title>
<path fill="none" stroke="#000000" d="M230.0469,-55.2205C260.7718,-47.4617 382.8642,-16.6303 413.8306,-8.8105"/>
</g>
<!-- 18&#45;&#45;1 -->
<g id="edge6" class="edge">
<title>18--1</title>
<path fill="none" stroke="#000000" d="M23.9028,-13.6224C16.8107,-29.4133 0,-70.6748 0,-107 0,-157 0,-157 0,-157 0,-191.8967 23.9048,-196.3349 54,-214 110.1356,-246.95 191.183,-254.8838 215.7036,-256.5799"/>
</g>
<!-- 11&#45;&#45;17 -->
<g id="edge8" class="edge">
<title>11--17</title>
<path fill="none" stroke="#000000" d="M148.9063,-202.3857C161.1604,-192.8122 189.2109,-170.8977 201.2923,-161.4591"/>
</g>
<!-- 3&#45;&#45;9 -->
<g id="edge10" class="edge">
<title>3--9</title>
<path fill="none" stroke="#000000" d="M149.013,-103.2419C163.8388,-93.9758 202.0184,-70.1135 216.9172,-60.8017"/>
</g>
<!-- 19&#45;&#45;1 -->
<g id="edge12" class="edge">
<title>19--1</title>
<path fill="none" stroke="#000000" d="M123.3836,-10.1152C102.2888,-20.5558 38,-56.516 38,-107 38,-157 38,-157 38,-157 38,-239.5125 182.1812,-254.2747 215.9737,-256.6014"/>
</g>
<!-- 12&#45;&#45;17 -->
<g id="edge14" class="edge">
<title>12--17</title>
<path fill="none" stroke="#000000" d="M178.9238,-200.869C185.0655,-191.2727 196.8827,-172.8083 203.0441,-163.1811"/>
</g>
<!-- 4&#45;&#45;9 -->
<g id="edge16" class="edge">
<title>4--9</title>
<path fill="none" stroke="#000000" d="M180.1368,-101.6491C189.4239,-91.9751 208.8909,-71.697 218.0439,-62.1626"/>
</g>
<!-- 20&#45;&#45;1 -->
<g id="edge18" class="edge">
<title>20--1</title>
<path fill="none" stroke="#000000" d="M191.0912,-8.9044C165.2829,-16.4803 76,-47.0234 76,-107 76,-157 76,-157 76,-157 76,-183.7037 76.1398,-195.0956 95,-214 129.9353,-249.0172 194.237,-255.5222 215.7636,-256.7271"/>
</g>
<!-- 13&#45;&#45;17 -->
<g id="edge20" class="edge">
<title>13--17</title>
<path fill="none" stroke="#000000" d="M207,-199.6223C207,-190.0603 207,-173.5004 207,-164.0842"/>
</g>
<!-- 5&#45;&#45;9 -->
<g id="edge22" class="edge">
<title>5--9</title>
<path fill="none" stroke="#000000" d="M209.2247,-100.0477C212.2816,-90.4951 217.7473,-73.4147 220.7942,-63.8932"/>
</g>
<!-- 21&#45;&#45;1 -->
<g id="edge24" class="edge">
<title>21--1</title>
<path fill="none" stroke="#000000" d="M254.4726,-10.1556C275.1088,-20.7199 338,-57.016 338,-107 338,-157 338,-157 338,-157 338,-183.7037 336.9213,-194.2032 319,-214 293.8751,-241.7544 247.4292,-252.6322 229.9206,-255.8648"/>
</g>
<!-- 14&#45;&#45;17 -->
<g id="edge26" class="edge">
<title>14--17</title>
<path fill="none" stroke="#000000" d="M235.0762,-200.869C228.9345,-191.2727 217.1173,-172.8083 210.9559,-163.1811"/>
</g>
<!-- 6&#45;&#45;9 -->
<g id="edge28" class="edge">
<title>6--9</title>
<path fill="none" stroke="#000000" d="M236.7753,-100.0477C233.7184,-90.4951 228.2527,-73.4147 225.2058,-63.8932"/>
</g>
<!-- 22&#45;&#45;1 -->
<g id="edge30" class="edge">
<title>22--1</title>
<path fill="none" stroke="#000000" d="M325.168,-11.8634C339.0313,-25.4639 376,-65.6122 376,-107 376,-157 376,-157 376,-157 376,-227.7643 259.9029,-251.1243 229.9717,-255.971"/>
</g>
<!-- 15&#45;&#45;17 -->
<g id="edge32" class="edge">
<title>15--17</title>
<path fill="none" stroke="#000000" d="M265.0938,-202.3857C252.8396,-192.8122 224.7891,-170.8977 212.7077,-161.4591"/>
</g>
<!-- 7&#45;&#45;9 -->
<g id="edge34" class="edge">
<title>7--9</title>
<path fill="none" stroke="#000000" d="M265.8632,-101.6491C256.5761,-91.9751 237.1091,-71.697 227.9561,-62.1626"/>
</g>
<!-- 23&#45;&#45;1 -->
<g id="edge36" class="edge">
<title>23--1</title>
<path fill="none" stroke="#000000" d="M379.1737,-12.9963C389.2346,-28.0555 414,-68.9852 414,-107 414,-157 414,-157 414,-157 414,-241.5909 265.1426,-254.7618 230.2542,-256.687"/>
</g>
<!-- 16&#45;&#45;17 -->
<g id="edge38" class="edge">
<title>16--17</title>
<path fill="none" stroke="#000000" d="M296.7012,-203.7194C279.3483,-194.6814 230.977,-169.488 213.4479,-160.3583"/>
</g>
<!-- 8&#45;&#45;9 -->
<g id="edge40" class="edge">
<title>8--9</title>
<path fill="none" stroke="#000000" d="M296.987,-103.2419C282.1612,-93.9758 243.9816,-70.1135 229.0828,-60.8017"/>
</g>
<!-- 24&#45;&#45;1 -->
<g id="edge42" class="edge">
<title>24--1</title>
<path fill="none" stroke="#000000" d="M424.5561,-13.5703C432.6988,-29.2485 452,-70.2841 452,-107 452,-157 452,-157 452,-157 452,-189.8348 432.878,-196.6524 405,-214 374.4019,-233.0403 260.0058,-251.3942 230.1591,-255.9336"/>
</g>
</g>
</svg>